<mxfile host="app.diagrams.net" modified="2023-04-26T01:50:24.958Z" agent="Mozilla/5.0 (Windows NT 10.0; Win64; x64; rv:109.0) Gecko/20100101 Firefox/112.0" etag="EUHgBcaWebLtEpakwbrP" version="21.2.1" type="device">
  <diagram name="Page-1" id="c9db0220-8083-56f3-ca83-edcdcd058819">
    <mxGraphModel dx="1806" dy="2809.5" grid="1" gridSize="10" guides="1" tooltips="1" connect="1" arrows="1" fold="1" page="1" pageScale="1.5" pageWidth="826" pageHeight="1169" background="none" math="0" shadow="0">
      <root>
        <mxCell id="0" style=";html=1;" />
        <mxCell id="1" style=";html=1;" parent="0" />
        <mxCell id="3d76a8aef4d5c911-24" value="&lt;div&gt;ここにPDFファイルをドラッグ＆ドロップして下さい。&lt;/div&gt;&lt;div&gt;スマホの方は１回ファイルをダウンロードしてからButtonをクリックしてください。　&lt;br&gt;&lt;/div&gt;" style="html=1;shadow=0;dashed=0;shape=mxgraph.bootstrap.rrect;rSize=5;fontSize=12;strokeColor=#dddddd;align=left;spacing=10;verticalAlign=top;whiteSpace=wrap;rounded=0;" parent="1" vertex="1">
          <mxGeometry x="40" y="-1400" width="800" height="120" as="geometry" />
        </mxCell>
        <mxCell id="3d76a8aef4d5c911-51" value="提出" style="html=1;shadow=0;dashed=0;shape=mxgraph.bootstrap.rrect;align=center;rSize=5;strokeColor=none;fillColor=#3D8BCD;fontColor=#ffffff;fontSize=16;whiteSpace=wrap;rounded=0;" parent="1" vertex="1">
          <mxGeometry x="40" y="-1250" width="150" height="40" as="geometry" />
        </mxCell>
        <mxCell id="IJeN9JHwgCawyJha8VpM-1" value="Button" style="rounded=0;whiteSpace=wrap;html=1;" parent="1" vertex="1">
          <mxGeometry x="710" y="-1380" width="120" height="20" as="geometry" />
        </mxCell>
        <mxCell id="IJeN9JHwgCawyJha8VpM-2" value="" style="html=1;shadow=0;dashed=0;shape=mxgraph.bootstrap.rrect;rSize=5;strokeColor=none;fillColor=#f6f6f6;whiteSpace=wrap;" parent="1" vertex="1">
          <mxGeometry x="40" y="-1420" width="800" height="20" as="geometry" />
        </mxCell>
        <mxCell id="IJeN9JHwgCawyJha8VpM-3" value="" style="html=1;shadow=0;dashed=0;shape=mxgraph.bootstrap.leftButtonStriped;fillColor=#55BFE0;fontColor=#FFFFFF;whiteSpace=wrap;" parent="IJeN9JHwgCawyJha8VpM-2" vertex="1">
          <mxGeometry width="500" height="20" as="geometry" />
        </mxCell>
        <mxCell id="IJeN9JHwgCawyJha8VpM-4" value="&lt;font style=&quot;font-size: 40px&quot;&gt;ようこそ!&lt;/font&gt;&lt;br&gt;&lt;br&gt;大阪電気通信大学購入図書照会" style="html=1;shadow=0;dashed=0;shape=mxgraph.bootstrap.rrect;rSize=5;strokeColor=none;html=1;whiteSpace=wrap;fillColor=#E9ECEF;fontColor=#474E4F;align=left;spacing=15;fontSize=14;verticalAlign=top;spacingTop=40;" parent="1" vertex="1">
          <mxGeometry x="40" y="-1720" width="800" height="300" as="geometry" />
        </mxCell>
        <mxCell id="IJeN9JHwgCawyJha8VpM-5" value="&lt;div&gt;Mypotalで配布された履修登録表のPDFから購入する教科書などを表示します&lt;/div&gt;&lt;div&gt;また履修登録についての確認、登録、修正につきましたては学務課にお問い合わせください。&lt;br&gt;&lt;/div&gt;&lt;div&gt;※担当教員から訂正などがございましたらそちらを優先してください。購入書籍の返品、交換できませんのでよろしくお　　願いします。&lt;/div&gt;&lt;div&gt;&lt;br&gt;&lt;/div&gt;" style="shape=line;html=1;shadow=0;dashed=0;strokeColor=#CED4DA;gradientColor=inherit;fontColor=inherit;fillColor=#E9ECEF;rSize=5;perimeter=none;whiteSpace=wrap;resizeHeight=1;fontSize=14;align=left;spacing=2;labelPosition=center;verticalLabelPosition=bottom;verticalAlign=top;spacingTop=10;" parent="IJeN9JHwgCawyJha8VpM-4" vertex="1">
          <mxGeometry width="770" height="10" relative="1" as="geometry">
            <mxPoint x="15" y="150" as="offset" />
          </mxGeometry>
        </mxCell>
        <mxCell id="IJeN9JHwgCawyJha8VpM-81" value="all" style="strokeWidth=1;shadow=0;dashed=0;align=center;html=1;shape=mxgraph.mockup.forms.rrect;rSize=0;fillColor=#eeeeee;strokeColor=#999999;gradientColor=#cccccc;align=left;spacingLeft=4;fontSize=17;fontColor=#666666;labelPosition=right;" parent="1" vertex="1">
          <mxGeometry x="380" y="-1250" width="15" height="15" as="geometry" />
        </mxCell>
        <mxCell id="IJeN9JHwgCawyJha8VpM-82" value="前期" style="strokeWidth=1;shadow=0;dashed=0;align=center;html=1;shape=mxgraph.mockup.forms.rrect;rSize=0;fillColor=#eeeeee;strokeColor=#999999;gradientColor=#cccccc;align=left;spacingLeft=4;fontSize=17;fontColor=#666666;labelPosition=right;" parent="1" vertex="1">
          <mxGeometry x="440" y="-1250" width="15" height="15" as="geometry" />
        </mxCell>
        <mxCell id="IJeN9JHwgCawyJha8VpM-83" value="後期" style="strokeWidth=1;shadow=0;dashed=0;align=center;html=1;shape=mxgraph.mockup.forms.rrect;rSize=0;fillColor=#eeeeee;strokeColor=#999999;gradientColor=#cccccc;align=left;spacingLeft=4;fontSize=17;fontColor=#666666;labelPosition=right;" parent="1" vertex="1">
          <mxGeometry x="510" y="-1250" width="15" height="15" as="geometry" />
        </mxCell>
        <mxCell id="IJeN9JHwgCawyJha8VpM-84" value="プレビュー" style="html=1;shadow=0;dashed=0;shape=mxgraph.bootstrap.rrect;align=center;rSize=5;strokeColor=none;fillColor=#3D8BCD;fontColor=#ffffff;fontSize=16;whiteSpace=wrap;rounded=0;" parent="1" vertex="1">
          <mxGeometry x="210" y="-1250" width="150" height="40" as="geometry" />
        </mxCell>
      </root>
    </mxGraphModel>
  </diagram>
</mxfile>
